<?xml version="1.0" encoding="utf-8"?>
<!-- Generator: Adobe Illustrator 23.0.2, SVG Export Plug-In . SVG Version: 6.00 Build 0)  -->
<svg version="1.1" id="Layer_1" xmlns="http://www.w3.org/2000/svg" xmlns:xlink="http://www.w3.org/1999/xlink" x="0px" y="0px"
	 viewBox="0 0 20 20" style="enable-background:new 0 0 20 20;" xml:space="preserve">
<path d="M17.73,17.59l-4.56-5.21c1.21-1.24,1.96-2.93,1.96-4.8c0-3.79-3.08-6.88-6.88-6.88S1.38,3.78,1.38,7.58s3.08,6.88,6.88,6.88
	c1.48,0,2.84-0.47,3.96-1.27l4.57,5.23c0.12,0.14,0.3,0.21,0.47,0.21c0.15,0,0.29-0.05,0.41-0.15
	C17.93,18.24,17.95,17.85,17.73,17.59z M2.62,7.58c0-3.1,2.52-5.62,5.62-5.62s5.62,2.52,5.62,5.62c0,1.7-0.76,3.22-1.95,4.25
	c-0.01,0.01-0.03,0.01-0.04,0.03c-0.02,0.01-0.02,0.03-0.04,0.05c-0.97,0.81-2.23,1.3-3.59,1.3C5.15,13.2,2.62,10.68,2.62,7.58z"/>
</svg>
