<?xml version="1.0" encoding="utf-8"?>
<!-- Generator: Adobe Illustrator 23.0.2, SVG Export Plug-In . SVG Version: 6.00 Build 0)  -->
<svg version="1.1" id="Layer_1" xmlns="http://www.w3.org/2000/svg" xmlns:xlink="http://www.w3.org/1999/xlink" x="0px" y="0px"
	 viewBox="0 0 20 20" style="enable-background:new 0 0 20 20;" xml:space="preserve">
<g>
	<g>
		<path d="M10.07,18.4c-4.36,0-7.9-3.54-7.9-7.9s3.54-7.9,7.9-7.9s7.9,3.54,7.9,7.9S14.43,18.4,10.07,18.4z M10.07,3.4
			c-3.92,0-7.1,3.19-7.1,7.1c0,3.91,3.18,7.1,7.1,7.1s7.1-3.18,7.1-7.1C17.17,6.59,13.99,3.4,10.07,3.4z"/>
	</g>
	<g>
		<g>
			<path d="M14.07,11.38c-0.07,0-0.14-0.02-0.21-0.06L10.4,9l3.47-2.31c0.17-0.11,0.41-0.07,0.52,0.1c0.11,0.17,0.07,0.41-0.1,0.52
				L11.75,9l2.53,1.69c0.17,0.11,0.22,0.35,0.1,0.52C14.31,11.32,14.2,11.38,14.07,11.38z"/>
		</g>
		<g>
			<path d="M6.07,11.38c-0.12,0-0.24-0.06-0.31-0.17c-0.11-0.17-0.07-0.41,0.1-0.52L8.4,9L5.87,7.31C5.69,7.2,5.65,6.96,5.76,6.79
				c0.12-0.17,0.35-0.22,0.52-0.1L9.75,9l-3.47,2.31C6.22,11.36,6.15,11.38,6.07,11.38z"/>
		</g>
	</g>
	<g>
		<path d="M5.8,12.5h8.56c0,0-0.39,3.5-4.28,3.5S5.8,12.5,5.8,12.5z"/>
	</g>
</g>
</svg>
