<?xml version="1.0" encoding="utf-8"?>
<!-- Generator: Adobe Illustrator 23.0.2, SVG Export Plug-In . SVG Version: 6.00 Build 0)  -->
<svg version="1.1" id="Layer_1" xmlns="http://www.w3.org/2000/svg" xmlns:xlink="http://www.w3.org/1999/xlink" x="0px" y="0px"
	 viewBox="0 0 20 20" style="enable-background:new 0 0 20 20;" xml:space="preserve">
<g>
	<g>
		<path d="M16.99,6.65c-1.05,0-2.1,0-3.2,0l-0.88,0c0.13-0.22,0.25-0.41,0.36-0.62c0.67-1.27,1.24-2.53,0.81-4.05
			c-0.16-0.55-0.39-1.37-1.33-1.37c0,0-0.01,0-0.01,0c-1,0.01-1.14,0.96-1.21,1.42c-0.21,1.42-0.87,2.57-2.03,3.51
			c-0.4,0.33-0.87,0.74-1.23,1.21c-0.2,0.26-0.54,0.79-0.55,1.34c-0.03,1.56-0.03,3.14-0.02,4.67c0,0.87,0,1.75,0,2.62
			c0,0.5,0.12,0.86,0.37,1.1c0.24,0.24,0.58,0.35,1.03,0.35c0.01,0,0.03,0,0.04,0c0.78-0.01,1.58-0.01,2.36-0.01
			c0.79,0,1.61,0,2.42-0.01c1.71-0.03,3.12-1.11,3.58-2.77c0.44-1.59,0.89-3.28,1.34-5.01c0.19-0.74,0.12-1.33-0.2-1.75
			C18.31,6.87,17.76,6.65,16.99,6.65z M18.17,8.86c-0.45,1.73-0.9,3.41-1.34,5c-0.38,1.35-1.52,2.24-2.92,2.26
			c-0.8,0.01-1.62,0.01-2.41,0.01c-0.78,0-1.58,0-2.37,0.01c-0.27,0-0.47-0.05-0.57-0.15c-0.11-0.11-0.16-0.31-0.16-0.61
			c0-0.88,0-1.75,0-2.63c0-1.53,0-3.11,0.02-4.66c0-0.25,0.16-0.6,0.41-0.93c0.32-0.42,0.75-0.79,1.12-1.09
			c1.29-1.06,2.03-2.35,2.27-3.95c0.09-0.64,0.21-0.82,0.53-0.82c0,0,0,0,0.01,0c0.38,0,0.49,0.27,0.66,0.87
			c0.36,1.26-0.15,2.39-0.76,3.53c-0.12,0.22-0.25,0.44-0.41,0.69C12.18,6.52,12.09,6.66,12,6.82l-0.31,0.53l2.11,0
			c1.09,0,2.14,0,3.19,0c0.54,0,0.91,0.12,1.1,0.37C18.27,7.95,18.3,8.34,18.17,8.86z"/>
		<path d="M9.1,16.96c-0.49,0-0.86-0.13-1.12-0.39c-0.27-0.27-0.41-0.66-0.4-1.19c0-0.87,0-1.75,0-2.62c0-1.53,0-3.11,0.02-4.67
			c0.01-0.59,0.37-1.14,0.58-1.41c0.37-0.48,0.84-0.89,1.25-1.23c1.13-0.92,1.77-2.05,1.98-3.43c0.07-0.45,0.23-1.52,1.33-1.52
			c1.04,0,1.31,0.91,1.46,1.46c0.45,1.56-0.13,2.85-0.82,4.14c-0.08,0.15-0.16,0.28-0.25,0.44h0.65c1.11,0,2.15,0,3.2,0
			c0.81,0,1.4,0.23,1.75,0.68s0.42,1.08,0.22,1.86c-0.45,1.73-0.9,3.42-1.34,5.01c-0.48,1.71-1.93,2.83-3.7,2.86
			c-0.81,0.01-1.63,0.01-2.42,0.01c-0.78,0-1.57,0-2.35,0.01H9.1z M12.76,0.73c-0.9,0.01-1.03,0.85-1.1,1.31
			c-0.22,1.45-0.89,2.62-2.07,3.59c-0.4,0.33-0.86,0.73-1.21,1.19C8.19,7.07,7.87,7.57,7.86,8.09c-0.03,1.56-0.03,3.14-0.02,4.67
			c0,0.88,0,1.75,0,2.63c0,0.46,0.1,0.79,0.33,1.01c0.21,0.21,0.52,0.32,0.94,0.32h0.04c0.78-0.01,1.58-0.01,2.36-0.01
			c0.79,0,1.61,0,2.42-0.01c1.66-0.03,3.01-1.08,3.46-2.68c0.44-1.59,0.89-3.28,1.34-5.01c0.18-0.7,0.12-1.25-0.18-1.64
			c-0.3-0.39-0.82-0.58-1.55-0.59l0,0c-1.04,0-2.09,0-3.17,0H12.7l0.12-0.19c0.14-0.23,0.25-0.42,0.36-0.61
			c0.66-1.25,1.22-2.49,0.8-3.96C13.82,1.47,13.6,0.73,12.76,0.73z M9.11,16.26c-0.3,0-0.51-0.06-0.63-0.19
			c-0.13-0.13-0.2-0.36-0.2-0.69c0-0.88,0-1.75,0-2.63v-0.14c0-1.48,0-3.01,0.02-4.52c0-0.28,0.17-0.65,0.43-1
			c0.33-0.43,0.76-0.8,1.14-1.12c1.27-1.04,1.99-2.3,2.23-3.87c0.09-0.61,0.22-0.93,0.65-0.93c0.48,0,0.62,0.36,0.79,0.96
			c0.37,1.31-0.15,2.46-0.77,3.62c-0.12,0.23-0.26,0.46-0.41,0.7l-0.04,0.06c-0.07,0.11-0.14,0.23-0.22,0.37l-0.2,0.34l2.23,0
			c0.97,0,1.91,0,2.86,0c0.58,0,0.99,0.14,1.2,0.41c0.21,0.27,0.24,0.7,0.1,1.26l0,0c-0.46,1.77-0.91,3.45-1.34,5
			c-0.39,1.41-1.58,2.33-3.04,2.35c-0.79,0.01-1.59,0.01-2.41,0.01c-0.78,0-1.58,0-2.37,0.01C9.13,16.26,9.12,16.26,9.11,16.26z
			 M12.76,1.43c-0.19,0-0.31,0.04-0.41,0.72c-0.24,1.63-1,2.94-2.32,4.02c-0.37,0.3-0.79,0.67-1.1,1.07C8.7,7.55,8.56,7.87,8.55,8.1
			c-0.03,1.5-0.03,3.03-0.02,4.51v0.14c0,0.88,0,1.75,0,2.63c0,0.32,0.07,0.46,0.12,0.52c0.05,0.05,0.19,0.11,0.48,0.11
			C9.92,16,10.73,16,11.5,16c0.82,0,1.61,0,2.4-0.01c1.34-0.02,2.44-0.87,2.8-2.17c0.43-1.55,0.88-3.23,1.34-5
			c0.12-0.48,0.11-0.83-0.05-1.04c-0.16-0.21-0.5-0.32-1-0.32c-0.94,0-1.89,0-2.86,0l-2.67,0l0.43-0.71
			c0.08-0.13,0.15-0.25,0.22-0.37l0.04-0.06c0.15-0.25,0.29-0.47,0.4-0.69c0.59-1.12,1.09-2.22,0.75-3.44
			C13.12,1.56,13.02,1.43,12.76,1.43z"/>
	</g>
	<g>
		<path d="M6.13,12.78c0-0.37,0-0.75,0-1.12l0-0.35h0c0-0.25,0-0.5,0-0.75c0-0.86-0.01-1.75,0.01-2.63c0.01-0.3-0.02-0.73-0.31-1.01
			C5.61,6.71,5.3,6.62,4.88,6.64c-0.66,0.03-1.38,0.03-2.31,0C2.15,6.63,1.85,6.72,1.63,6.93C1.42,7.14,1.31,7.45,1.31,7.86
			c0.01,2.83,0.01,5.21-0.01,7.63c0,0.44,0.11,0.76,0.34,0.99c0.23,0.23,0.57,0.34,1.03,0.33c0.68-0.01,1.42-0.02,2.15,0
			c0.03,0,0.06,0,0.08,0c0.4,0,0.7-0.1,0.91-0.31c0.23-0.23,0.34-0.57,0.33-1.04C6.12,14.57,6.12,13.66,6.13,12.78z M5.32,16
			c-0.08,0.08-0.24,0.12-0.48,0.11C4.51,16.1,4.17,16.1,3.83,16.1c-0.4,0-0.8,0.01-1.17,0.01c-0.26,0-0.44-0.04-0.53-0.13
			C2.04,15.9,2,15.73,2,15.49c0.02-2.42,0.01-4.8,0.01-7.63c0-0.15,0.02-0.34,0.11-0.43c0.09-0.09,0.28-0.1,0.43-0.09
			c0.95,0.03,1.69,0.03,2.37,0c0.15-0.01,0.34,0,0.43,0.08c0.07,0.07,0.11,0.24,0.1,0.5C5.42,8.8,5.43,9.69,5.43,10.56
			c0,0.36,0,0.73,0,1.09V12h0c0,0.26,0,0.52,0,0.77c0,0.88-0.01,1.8,0.01,2.7C5.45,15.74,5.41,15.92,5.32,16z"/>
		<path d="M4.91,16.93l-0.09,0c-0.76-0.03-1.5-0.01-2.14,0c-0.02,0-0.04,0-0.06,0c-0.46,0-0.81-0.12-1.06-0.37
			c-0.25-0.25-0.38-0.6-0.37-1.08c0.02-2.37,0.01-4.68,0.01-7.63c0-0.45,0.12-0.78,0.36-1.02c0.24-0.23,0.57-0.33,1.02-0.33
			c0.94,0.03,1.65,0.03,2.3,0c0.45-0.02,0.79,0.08,1.04,0.31c0.33,0.32,0.36,0.78,0.35,1.1C6.24,8.81,6.25,9.7,6.25,10.56l0.01,1.09
			c0,0.38,0,0.75,0,1.13v0.08c0,0.85-0.01,1.73,0.01,2.59c0.01,0.51-0.11,0.88-0.36,1.13C5.67,16.82,5.34,16.93,4.91,16.93z
			 M3.83,16.67c0.32,0,0.66,0,1,0.02l0.08,0c0.37,0,0.63-0.09,0.82-0.27c0.21-0.2,0.3-0.51,0.29-0.95C6,14.6,6,13.71,6,12.86v-0.08
			c0-0.37,0-0.75,0-1.12L6,10.56C6,9.7,5.99,8.81,6.01,7.93c0.01-0.27-0.02-0.67-0.28-0.92C5.54,6.82,5.26,6.74,4.88,6.76
			C4.22,6.8,3.5,6.8,2.56,6.77C2.17,6.75,1.91,6.84,1.72,7.02C1.53,7.21,1.44,7.48,1.44,7.86c0.01,2.95,0.01,5.26-0.01,7.63
			c0,0.4,0.1,0.7,0.3,0.9c0.21,0.21,0.52,0.29,0.94,0.29C3.03,16.67,3.42,16.67,3.83,16.67z M4.91,16.24c-0.02,0-0.04,0-0.07,0
			c-0.75-0.03-1.49-0.02-2.18,0c-0.01,0-0.03,0-0.04,0c-0.28,0-0.47-0.05-0.58-0.17c-0.11-0.11-0.17-0.3-0.17-0.58
			c0.02-2.46,0.01-4.83,0.01-7.63c0-0.25,0.05-0.42,0.15-0.52c0.1-0.1,0.28-0.14,0.52-0.13c0.95,0.03,1.68,0.03,2.36,0
			C5.17,7.2,5.33,7.24,5.42,7.33c0.1,0.1,0.15,0.29,0.14,0.59c-0.02,0.85-0.01,1.71-0.01,2.54v0.1c0,0.36,0,0.73,0,1.09l0,1.12
			c0,0.96-0.01,1.83,0.01,2.7c0.01,0.31-0.04,0.51-0.16,0.62l0,0C5.31,16.19,5.15,16.24,4.91,16.24z M3.83,15.97
			c0.33,0,0.68,0,1.02,0.02c0.27,0.02,0.36-0.05,0.39-0.07h0c0.03-0.03,0.09-0.12,0.08-0.44C5.3,14.6,5.3,13.74,5.31,12.77l0-0.66
			l0-0.46c0-0.36,0-0.73,0-1.09v-0.1c0-0.83-0.01-1.7,0.01-2.55c0.01-0.33-0.06-0.4-0.07-0.41C5.24,7.5,5.19,7.44,4.91,7.46
			c-0.69,0.04-1.42,0.04-2.38,0c-0.2-0.01-0.3,0.03-0.33,0.06S2.13,7.66,2.13,7.86c0.01,2.8,0.01,5.18-0.01,7.63
			c0,0.27,0.06,0.36,0.09,0.4c0.04,0.04,0.14,0.09,0.4,0.09c0.01,0,0.02,0,0.04,0C3.04,15.98,3.43,15.97,3.83,15.97z"/>
	</g>
</g>
</svg>
