<?xml version="1.0" encoding="utf-8"?>
<!-- Generator: Adobe Illustrator 23.0.2, SVG Export Plug-In . SVG Version: 6.00 Build 0)  -->
<svg version="1.1" id="Layer_1" xmlns="http://www.w3.org/2000/svg" xmlns:xlink="http://www.w3.org/1999/xlink" x="0px" y="0px"
	 viewBox="0 0 20 20" style="enable-background:new 0 0 20 20;" xml:space="preserve">
<g>
	<g>
		<path d="M15.2,16.36H4.12c-1.2,0-2.17-0.98-2.17-2.17V5.77c0-1.2,0.98-2.17,2.17-2.17H15.2c1.2,0,2.17,0.98,2.17,2.17v8.41
			C17.37,15.38,16.4,16.36,15.2,16.36z M4.12,4.35c-0.79,0-1.42,0.64-1.42,1.42v8.41c0,0.79,0.64,1.42,1.42,1.42H15.2
			c0.79,0,1.42-0.64,1.42-1.42V5.77c0-0.79-0.64-1.42-1.42-1.42H4.12z"/>
	</g>
	<g>
		<polyline points="7.24,13.38 12.91,9.98 7.24,6.58 		"/>
	</g>
</g>
</svg>
