<?xml version="1.0" encoding="utf-8"?>
<!-- Generator: Adobe Illustrator 23.0.2, SVG Export Plug-In . SVG Version: 6.00 Build 0)  -->
<svg version="1.1" id="Layer_1" xmlns="http://www.w3.org/2000/svg" xmlns:xlink="http://www.w3.org/1999/xlink" x="0px" y="0px"
	 viewBox="0 0 20 20" style="enable-background:new 0 0 20 20;" xml:space="preserve">
<g>
	<path d="M9.08,17.57c-3.99,0-7.24-3.25-7.24-7.24S5.09,3.1,9.08,3.1c3.99,0,7.24,3.25,7.24,7.24S13.07,17.57,9.08,17.57z
		 M9.08,3.85c-3.58,0-6.49,2.91-6.49,6.49c0,3.58,2.91,6.49,6.49,6.49c3.58,0,6.49-2.91,6.49-6.49C15.57,6.76,12.66,3.85,9.08,3.85z
		"/>
</g>
<g>
	<path d="M11.42,11.75c0,0.95-0.77,1.59-1.93,1.7l-0.01,1.19H8.94v-1.18c-0.85-0.05-1.66-0.43-2.21-0.95l0.32-0.62
		c0.58,0.56,1.39,0.88,2.1,0.88c0.91,0,1.48-0.37,1.48-0.98c0.01-1.68-3.54-0.79-3.54-3.05c0-0.9,0.73-1.5,1.85-1.6V6.04h0.55
		L9.5,7.12c0.66,0.04,1.31,0.26,1.77,0.58l-0.31,0.64C10.4,7.96,9.73,7.81,9.23,7.81c-0.81,0-1.34,0.32-1.34,0.86
		C7.89,10.31,11.43,9.46,11.42,11.75z"/>
</g>
</svg>
