<?xml version="1.0" encoding="utf-8"?>
<!-- Generator: Adobe Illustrator 23.0.2, SVG Export Plug-In . SVG Version: 6.00 Build 0)  -->
<svg version="1.1" id="Layer_1" xmlns="http://www.w3.org/2000/svg" xmlns:xlink="http://www.w3.org/1999/xlink" x="0px" y="0px"
	 viewBox="0 0 20 20" style="enable-background:new 0 0 20 20;" xml:space="preserve">
<g>
	<g>
		<path d="M18.14,3.7c0,3.81,0,7.62,0,11.43c-0.02,0.03-0.05,0.05-0.06,0.09c-0.28,0.88-0.81,1.28-1.73,1.28c-4.23,0-8.46,0-12.69,0
			c-0.61,0-1.11-0.23-1.46-0.73c-0.15-0.21-0.23-0.47-0.34-0.71c0-2.92,0-5.84,0-8.76C2.04,6.24,2.22,6.12,2.4,6.11
			C3.08,6.09,3.77,6.1,4.48,6.1c0-0.72,0-1.4,0-2.07c0-0.45,0.08-0.54,0.51-0.54c4.21,0,8.43,0,12.64,0.01
			C17.8,3.51,17.97,3.63,18.14,3.7z M4.93,15.86c0.03,0,0.13,0.01,0.22,0.01c3.75,0,7.5,0,11.25,0c0.72,0,1.1-0.4,1.1-1.13
			c0-3.4,0-6.8,0-10.2c0-0.13-0.01-0.26-0.02-0.4c-4.14,0-8.25,0-12.39,0c0,0.15,0,0.27,0,0.38c0,3.32,0.01,6.63-0.01,9.95
			C5.09,14.93,4.99,15.37,4.93,15.86z M2.51,6.75C2.5,6.86,2.49,6.93,2.49,7c0,2.58,0,5.16,0,7.74c0,0.66,0.48,1.15,1.09,1.14
			c0.55-0.01,0.89-0.43,0.89-1.13c0-2.55,0-5.11,0-7.66c0-0.11-0.01-0.21-0.02-0.33C3.8,6.75,3.17,6.75,2.51,6.75z"/>
		<path d="M6.43,7.71c0-0.6,0-1.21,0-1.81c0-0.32,0.13-0.46,0.46-0.46c0.99,0.01,1.98,0.01,2.96,0c0.35,0,0.47,0.15,0.46,0.48
			c-0.01,1.19-0.01,2.39,0,3.58c0,0.34-0.13,0.48-0.47,0.47c-0.98-0.01-1.95,0-2.93-0.01c-0.39,0-0.48-0.09-0.48-0.5
			C6.43,8.89,6.43,8.3,6.43,7.71z M7.08,6.09c0,1.11,0,2.18,0,3.25c0.87,0,1.72,0,2.58,0c0-1.1,0-2.17,0-3.25
			C8.79,6.09,7.94,6.09,7.08,6.09z"/>
		<path d="M6.45,11.91c0-0.2,0-0.38,0-0.58c3.24,0,6.46,0,9.7,0c0,0.2,0,0.37,0,0.58C12.93,11.91,9.71,11.91,6.45,11.91z"/>
		<path d="M16.15,13.29c0,0.2,0,0.38,0,0.58c-3.23,0-6.45,0-9.7,0c0-0.19,0-0.37,0-0.58C9.68,13.29,12.9,13.29,16.15,13.29z"/>
		<path d="M16.15,5.47c0,0.2,0,0.37,0,0.58c-1.49,0-2.98,0-4.49,0c0-0.19,0-0.37,0-0.58C13.16,5.47,14.65,5.47,16.15,5.47z"/>
		<path d="M11.66,8.01c0-0.19,0-0.37,0-0.58c1.49,0,2.97,0,4.49,0c0,0.18,0,0.37,0,0.58C14.65,8.01,13.16,8.01,11.66,8.01z"/>
		<path d="M16.15,9.38c0,0.2,0,0.37,0,0.58c-1.49,0-2.98,0-4.49,0c0-0.19,0-0.37,0-0.58C13.16,9.38,14.65,9.38,16.15,9.38z"/>
	</g>
</g>
</svg>
