<?xml version="1.0" encoding="utf-8"?>
<!-- Generator: Adobe Illustrator 23.0.2, SVG Export Plug-In . SVG Version: 6.00 Build 0)  -->
<svg version="1.1" id="Layer_1" xmlns="http://www.w3.org/2000/svg" xmlns:xlink="http://www.w3.org/1999/xlink" x="0px" y="0px"
	 viewBox="0 0 20 20" style="enable-background:new 0 0 20 20;" xml:space="preserve">
<g>
	<path d="M3.16,16.82h15.83V5.06H3.16V16.82z M3.72,5.42h14.71v11.04H3.72V5.42z"/>
	<polygon points="1.02,14.94 2.18,14.94 2.18,14.59 1.58,14.59 1.58,3.54 16.29,3.54 16.29,4.16 16.85,4.16 16.85,3.18 1.02,3.18 	
		"/>
	<path d="M4.85,15.29c0.09-0.27,0.17-0.54,0.26-0.81c0.35-1.03,0.7-2.05,1.13-3.04c0.15-0.34,0.34-0.67,0.51-1
		c0.04-0.07,0.1-0.13,0.16-0.2c0.1-0.1,0.18-0.12,0.3-0.05c0.11,0.06,0.21,0.14,0.3,0.22c0.35,0.34,0.62,0.75,0.88,1.16
		c0.27,0.43,0.52,0.87,0.77,1.31c0.01,0.02,0.03,0.05,0.05,0.08c0.02-0.04,0.04-0.06,0.06-0.09c0.63-0.99,1.27-1.97,1.97-2.91
		c0.29-0.39,0.58-0.77,0.93-1.11c0.09-0.08,0.19-0.16,0.29-0.23c0.13-0.09,0.21-0.08,0.32,0.04c0.13,0.14,0.25,0.28,0.36,0.44
		c0.47,0.68,0.88,1.39,1.27,2.12c0.7,1.33,1.39,2.67,2.08,4c0.01,0.02,0.02,0.04,0.03,0.07C12.63,15.29,8.75,15.29,4.85,15.29z"/>
	<path d="M9.61,7.86c0,0.6-0.49,1.09-1.09,1.09c-0.6,0-1.09-0.49-1.09-1.09c0-0.6,0.49-1.09,1.1-1.09C9.13,6.77,9.62,7.26,9.61,7.86
		z"/>
</g>
</svg>
