<?xml version="1.0" encoding="utf-8"?>
<!-- Generator: Adobe Illustrator 23.0.2, SVG Export Plug-In . SVG Version: 6.00 Build 0)  -->
<svg version="1.1" id="Layer_1" xmlns="http://www.w3.org/2000/svg" xmlns:xlink="http://www.w3.org/1999/xlink" x="0px" y="0px"
	 viewBox="0 0 20 20" style="enable-background:new 0 0 20 20;" xml:space="preserve">
<g>
	<g>
		<path d="M9.47,3.45C9.38,3.84,9.28,4.23,9.19,4.62C8.86,5.98,8.54,7.34,8.22,8.7c-0.1,0.43-0.17,0.88-0.34,1.3
			c-0.33,0.83-1.25,1.39-2.14,1.31c-0.05,0-0.1-0.01-0.16-0.01c-0.21-0.02-0.21-0.02-0.26,0.18c-0.28,1.19-0.55,2.38-0.84,3.57
			c-0.09,0.37-0.18,0.73-0.27,1.1c-0.02,0.07-0.01,0.12,0.04,0.18c0.5,0.69,1,1.38,1.51,2.07c0.1,0.13,0.13,0.27,0.04,0.41
			c-0.07,0.11-0.21,0.15-0.38,0.11C4.11,18.6,2.8,18.29,1.5,17.98c-0.08-0.02-0.16-0.04-0.24-0.05C1.12,17.89,1.02,17.8,1,17.65
			c-0.02-0.15,0.05-0.25,0.18-0.32c0.45-0.23,0.91-0.47,1.36-0.7c0.33-0.17,0.65-0.34,0.98-0.5c0.08-0.04,0.08-0.11,0.1-0.18
			c0.2-0.85,0.4-1.7,0.6-2.54c0.17-0.72,0.34-1.44,0.52-2.15c0.03-0.11,0.02-0.16-0.11-0.2c-0.7-0.22-1.16-0.68-1.41-1.37
			C3.21,9.65,3.19,9.61,3.18,9.56c-0.33,0.22-0.66,0.44-0.99,0.67c-0.23,0.16-0.48,0.08-0.52-0.17C1.64,9.93,1.68,9.82,1.79,9.75
			C2.1,9.54,2.41,9.33,2.72,9.13c0.12-0.08,0.25-0.08,0.37,0c0.05-0.83,0.33-1.6,0.5-2.4C3.7,6.16,3.84,5.6,3.98,5.04
			C4.19,4.16,4.4,3.27,4.61,2.39C4.7,2.04,4.78,1.7,4.86,1.35c0.07-0.32,0.18-0.4,0.51-0.32c0.9,0.22,1.81,0.44,2.71,0.65
			C8.53,1.79,8.98,1.89,9.43,2c0.05,0.01,0.11,0.02,0.14,0.05c0.1,0.11,0.2,0.08,0.32,0.04c1.25-0.34,2.5-0.67,3.75-1.01
			c0.21-0.06,0.36,0.02,0.42,0.23c0.24,0.87,0.47,1.75,0.7,2.62c0.16,0.58,0.32,1.16,0.47,1.73c0.17,0.64,0.34,1.28,0.51,1.91
			c0.1,0.38,0.23,0.75,0.29,1.13c0.17,1.04-0.43,2.05-1.43,2.39c-0.1,0.03-0.15,0.06-0.11,0.19c0.33,1.2,0.65,2.41,0.97,3.61
			c0.1,0.37,0.2,0.73,0.29,1.1c0.02,0.09,0.09,0.13,0.16,0.17c0.45,0.22,0.9,0.43,1.35,0.65c0.31,0.15,0.62,0.29,0.93,0.44
			c0.17,0.08,0.23,0.19,0.22,0.33c-0.01,0.14-0.1,0.24-0.28,0.29c-0.85,0.23-1.69,0.45-2.54,0.68c-0.52,0.14-1.04,0.28-1.56,0.42
			c-0.17,0.05-0.3,0.01-0.39-0.1c-0.09-0.12-0.08-0.25,0.02-0.4c0.47-0.68,0.93-1.36,1.4-2.04c0.08-0.11,0.1-0.22,0.06-0.36
			c-0.21-0.78-0.42-1.55-0.63-2.33c-0.21-0.77-0.42-1.54-0.63-2.32c-0.02-0.09-0.05-0.11-0.14-0.09c-1.15,0.25-2.28-0.49-2.57-1.62
			c-0.35-1.4-0.74-2.79-1.12-4.18c-0.19-0.7-0.38-1.4-0.57-2.1C9.49,3.45,9.48,3.45,9.47,3.45z M5.44,6.36
			C5.44,6.36,5.44,6.36,5.44,6.36c0.87-0.04,1.74-0.08,2.62-0.12c0.09,0,0.12-0.03,0.14-0.12c0.01-0.09,0.04-0.19,0.06-0.28
			c0.25-1.05,0.5-2.1,0.75-3.15c0.02-0.09,0.04-0.16-0.1-0.19C8.5,2.43,8.09,2.32,7.68,2.23C6.97,2.06,6.25,1.89,5.53,1.71
			C5.45,1.69,5.42,1.71,5.4,1.8c-0.11,0.5-0.24,1-0.36,1.5c-0.24,1-0.47,1.99-0.71,2.99c-0.03,0.12,0,0.14,0.11,0.13
			C4.77,6.39,5.11,6.38,5.44,6.36z M14.79,6.45c-0.02-0.1-0.04-0.19-0.06-0.27c-0.18-0.66-0.35-1.31-0.53-1.97
			c-0.21-0.78-0.42-1.55-0.62-2.33c-0.03-0.1-0.06-0.12-0.16-0.09c-0.59,0.16-1.18,0.32-1.78,0.48c-0.53,0.14-1.06,0.28-1.59,0.42
			C9.98,2.71,9.95,2.74,9.97,2.83c0.31,1.15,0.62,2.31,0.93,3.46c0.02,0.07,0.05,0.1,0.12,0.1C12.28,6.41,13.52,6.43,14.79,6.45z
			 M7.23,6.91C7.23,6.91,7.23,6.91,7.23,6.91C6.24,6.95,5.26,7,4.27,7.04c-0.09,0-0.13,0.03-0.15,0.12C4.01,7.63,3.9,8.1,3.78,8.57
			C3.6,9.35,3.93,10.06,4.65,10.4c0.26,0.13,0.56,0.16,0.84,0.23c0.86,0.21,1.66-0.24,1.89-1.1C7.6,8.68,7.79,7.82,8,6.96
			c0.02-0.09-0.02-0.08-0.08-0.08C7.69,6.89,7.46,6.9,7.23,6.91z M13.04,7.08c0-0.02,0-0.04,0-0.06c-0.61,0-1.22,0-1.83,0
			c-0.06,0-0.11-0.01-0.08,0.09c0.23,0.86,0.46,1.72,0.7,2.58c0.2,0.7,0.93,1.17,1.66,1.07c0.35-0.05,0.69-0.14,1.02-0.27
			c0.64-0.24,1.08-1.04,0.92-1.7C15.3,8.24,15.14,7.71,15,7.18c-0.02-0.08-0.05-0.1-0.14-0.1C14.25,7.08,13.65,7.08,13.04,7.08z
			 M17.17,17.49c0-0.04-0.02-0.04-0.04-0.05c-0.39-0.19-0.79-0.38-1.18-0.57c-0.1-0.05-0.22-0.15-0.3-0.12
			c-0.09,0.02-0.14,0.17-0.2,0.26c-0.26,0.38-0.51,0.75-0.79,1.15C15.51,17.94,16.34,17.72,17.17,17.49z M4.74,18.11
			c0-0.02,0.01-0.04,0-0.04c-0.31-0.44-0.63-0.88-0.94-1.32c-0.03-0.04-0.05-0.04-0.09-0.02c-0.45,0.24-0.91,0.47-1.37,0.71
			c-0.03,0.02-0.09,0.02-0.08,0.08C3.09,17.72,3.91,17.91,4.74,18.11z"/>
	</g>
	<path d="M17.49,7.83c-0.2,0-0.4,0-0.6,0c-0.2,0-0.33-0.12-0.33-0.3c-0.01-0.18,0.12-0.31,0.31-0.32c0.42-0.01,0.84-0.01,1.26,0
		c0.17,0,0.3,0.15,0.29,0.32c-0.01,0.16-0.13,0.29-0.3,0.3C17.91,7.83,17.7,7.83,17.49,7.83z"/>
	<path d="M1.97,7.83c-0.2,0-0.41,0-0.61,0c-0.17,0-0.3-0.12-0.32-0.29c-0.01-0.17,0.1-0.33,0.28-0.33c0.43-0.01,0.87-0.01,1.3,0
		c0.18,0,0.3,0.16,0.28,0.33C2.89,7.7,2.76,7.82,2.58,7.83C2.38,7.83,2.17,7.83,1.97,7.83C1.97,7.83,1.97,7.83,1.97,7.83z"/>
	<path d="M16.25,5.64c0-0.1,0.04-0.18,0.12-0.23c0.32-0.22,0.64-0.44,0.96-0.64c0.15-0.1,0.33-0.05,0.42,0.08
		c0.09,0.14,0.07,0.33-0.06,0.42c-0.32,0.22-0.64,0.43-0.96,0.64c-0.1,0.06-0.21,0.07-0.31,0.01C16.3,5.86,16.25,5.77,16.25,5.64z"
		/>
	<path d="M17.49,10.31c-0.07,0-0.13-0.02-0.19-0.06c-0.3-0.2-0.6-0.4-0.9-0.61c-0.17-0.12-0.21-0.3-0.1-0.44
		c0.11-0.15,0.28-0.18,0.45-0.07c0.31,0.2,0.61,0.4,0.91,0.61c0.11,0.08,0.16,0.22,0.11,0.36C17.74,10.23,17.63,10.31,17.49,10.31z"
		/>
	<path d="M2.9,5.96c-0.16,0-0.27-0.12-0.39-0.2C2.27,5.62,2.04,5.46,1.81,5.3c-0.15-0.1-0.19-0.29-0.1-0.44
		C1.8,4.72,1.98,4.67,2.13,4.77C2.46,4.98,2.78,5.2,3.09,5.42c0.12,0.08,0.14,0.21,0.1,0.35C3.16,5.88,3.03,5.96,2.9,5.96z"/>
</g>
</svg>
