<?xml version="1.0" encoding="utf-8"?>
<!-- Generator: Adobe Illustrator 23.0.2, SVG Export Plug-In . SVG Version: 6.00 Build 0)  -->
<svg version="1.1" id="Layer_1" xmlns="http://www.w3.org/2000/svg" xmlns:xlink="http://www.w3.org/1999/xlink" x="0px" y="0px"
	 viewBox="0 0 20 20" style="enable-background:new 0 0 20 20;" xml:space="preserve">
<path d="M17.23,12.43l0-0.01l-0.01,0c0.14-0.57,0.21-1.16,0.21-1.75c0-3.49-2.46-6.52-5.87-7.26l0-0.01l-0.02,0
	C11.44,2.62,10.79,2.02,10,2.02c-0.79,0-1.44,0.6-1.55,1.37c-3.42,0.73-5.89,3.77-5.89,7.27c0,0.59,0.08,1.18,0.21,1.75l-0.01,0
	l0,0.01c-0.4,0.3-0.64,0.76-0.64,1.26c0,0.87,0.71,1.58,1.58,1.58c0.13,0,0.27-0.03,0.4-0.07l0.01,0.01l0.01,0
	C5.55,17.05,7.68,18.1,10,18.1c2.32,0,4.45-1.05,5.87-2.89l0.01,0l0.01-0.01c0.13,0.04,0.27,0.07,0.4,0.07
	c0.87,0,1.58-0.71,1.58-1.58C17.87,13.19,17.63,12.73,17.23,12.43z M16.29,14.51c-0.05,0-0.1-0.01-0.15-0.01
	c-0.14-0.02-0.27-0.08-0.38-0.17l0,0c-0.19-0.16-0.3-0.39-0.3-0.63c0-0.51,0.47-0.91,0.99-0.8c0.14,0.03,0.26,0.09,0.37,0.19
	c0.18,0.16,0.28,0.38,0.28,0.61C17.11,14.14,16.74,14.51,16.29,14.51z M14.74,15.36c-0.1,0.1-0.2,0.19-0.31,0.28
	c-0.08,0.07-0.16,0.15-0.25,0.22c-0.11,0.09-0.22,0.17-0.34,0.25c-0.09,0.06-0.18,0.13-0.27,0.19c-0.12,0.08-0.24,0.14-0.37,0.21
	c-0.1,0.05-0.19,0.11-0.29,0.16c-0.13,0.06-0.26,0.11-0.4,0.17c-0.1,0.04-0.19,0.09-0.29,0.12c-0.14,0.05-0.29,0.09-0.43,0.13
	c-0.1,0.03-0.19,0.06-0.29,0.08c-0.16,0.04-0.33,0.06-0.5,0.09c-0.08,0.01-0.16,0.03-0.25,0.04c-0.25,0.03-0.51,0.04-0.76,0.04
	c-0.26,0-0.51-0.01-0.76-0.04C9.15,17.29,9.08,17.27,9,17.25c-0.17-0.03-0.34-0.05-0.51-0.09c-0.09-0.02-0.18-0.05-0.27-0.08
	c-0.15-0.04-0.3-0.08-0.45-0.13c-0.1-0.03-0.19-0.08-0.28-0.12c-0.14-0.06-0.27-0.11-0.41-0.17c-0.1-0.05-0.19-0.1-0.28-0.15
	c-0.13-0.07-0.25-0.13-0.37-0.21c-0.09-0.06-0.18-0.13-0.27-0.19c-0.11-0.08-0.23-0.16-0.34-0.25c-0.09-0.07-0.17-0.15-0.25-0.22
	c-0.1-0.09-0.21-0.18-0.31-0.29c-0.08-0.08-0.15-0.17-0.23-0.26c-0.08-0.09-0.16-0.18-0.23-0.27c0.03-0.03,0.05-0.06,0.08-0.09
	c0.03-0.04,0.06-0.07,0.09-0.11c0.04-0.06,0.08-0.11,0.11-0.18c0.02-0.04,0.05-0.07,0.06-0.11c0.03-0.07,0.05-0.14,0.08-0.21
	c0.01-0.04,0.03-0.07,0.03-0.1c0.02-0.11,0.04-0.22,0.04-0.34c0-0.12-0.01-0.23-0.04-0.34c-0.01-0.03-0.02-0.05-0.02-0.08
	c-0.02-0.08-0.05-0.16-0.08-0.23c-0.01-0.03-0.03-0.06-0.05-0.09c-0.03-0.07-0.07-0.13-0.11-0.19c-0.02-0.03-0.05-0.06-0.07-0.09
	c-0.04-0.05-0.09-0.1-0.13-0.14c-0.03-0.03-0.07-0.06-0.11-0.09c-0.05-0.03-0.09-0.07-0.14-0.1c-0.05-0.03-0.09-0.05-0.14-0.08
	c-0.04-0.02-0.09-0.04-0.14-0.06c-0.06-0.02-0.11-0.04-0.17-0.05C4.04,12.14,4,12.14,3.95,12.13c-0.06-0.01-0.12-0.02-0.18-0.02
	c-0.02,0-0.04-0.01-0.06-0.01c-0.03,0-0.07,0.01-0.1,0.01c-0.04,0-0.08,0-0.12,0c-0.03-0.15-0.06-0.3-0.08-0.45
	c-0.01-0.08-0.03-0.16-0.04-0.24c-0.03-0.26-0.05-0.51-0.05-0.77c0-0.39,0.04-0.78,0.1-1.15c0.02-0.12,0.07-0.24,0.09-0.36
	c0.06-0.25,0.11-0.5,0.2-0.74c0.05-0.14,0.12-0.27,0.18-0.4C3.99,7.81,4.07,7.6,4.19,7.4c0.08-0.14,0.18-0.26,0.26-0.39
	c0.12-0.18,0.23-0.36,0.36-0.53c0.1-0.13,0.22-0.23,0.33-0.35c0.14-0.15,0.28-0.31,0.44-0.45c0.12-0.11,0.26-0.2,0.39-0.3
	C6.14,5.25,6.3,5.11,6.47,5c0.14-0.09,0.3-0.15,0.44-0.23c0.19-0.1,0.37-0.2,0.56-0.28c0.16-0.06,0.32-0.1,0.49-0.16
	c0.18-0.06,0.36-0.12,0.55-0.17c0.03,0.07,0.07,0.12,0.1,0.18c0.03,0.06,0.06,0.13,0.1,0.18c0.06,0.08,0.13,0.15,0.2,0.21
	c0.05,0.04,0.09,0.09,0.14,0.13c0.09,0.07,0.19,0.11,0.29,0.16C9.41,5.06,9.45,5.09,9.5,5.11C9.66,5.16,9.83,5.19,10,5.19
	c0.17,0,0.34-0.03,0.49-0.08c0.05-0.02,0.1-0.05,0.15-0.07c0.1-0.05,0.2-0.09,0.29-0.15c0.05-0.04,0.09-0.09,0.14-0.13
	c0.07-0.07,0.15-0.13,0.2-0.21c0.04-0.06,0.07-0.12,0.1-0.18c0.03-0.06,0.08-0.12,0.1-0.18c0.19,0.04,0.37,0.11,0.55,0.17
	c0.16,0.05,0.33,0.09,0.49,0.16c0.2,0.08,0.38,0.19,0.56,0.28c0.15,0.08,0.3,0.14,0.45,0.23c0.18,0.11,0.34,0.24,0.5,0.37
	c0.13,0.1,0.27,0.19,0.39,0.3c0.16,0.14,0.29,0.3,0.44,0.45c0.11,0.12,0.23,0.23,0.33,0.35c0.13,0.17,0.24,0.35,0.36,0.53
	c0.09,0.13,0.19,0.25,0.26,0.39c0.11,0.19,0.19,0.4,0.28,0.61c0.06,0.14,0.13,0.27,0.19,0.41c0.09,0.24,0.14,0.48,0.2,0.73
	c0.03,0.12,0.07,0.24,0.1,0.36c0.07,0.38,0.1,0.76,0.1,1.15c0,0.26-0.02,0.51-0.05,0.77c-0.01,0.08-0.03,0.16-0.04,0.24
	c-0.02,0.15-0.05,0.3-0.08,0.45c-0.04-0.01-0.07,0-0.11,0c-0.04,0-0.07-0.01-0.11-0.01c-0.02,0-0.05,0.01-0.07,0.01
	c-0.05,0-0.1,0.01-0.14,0.01c-0.06,0.01-0.13,0.02-0.19,0.04c-0.04,0.01-0.08,0.02-0.12,0.04c-0.07,0.02-0.13,0.05-0.2,0.09
	c-0.03,0.01-0.06,0.03-0.08,0.05c-0.07,0.04-0.14,0.09-0.2,0.14c-0.02,0.02-0.04,0.03-0.06,0.05c-0.06,0.06-0.12,0.12-0.18,0.19
	c-0.01,0.02-0.03,0.03-0.04,0.05c-0.05,0.07-0.1,0.15-0.14,0.22c-0.01,0.02-0.02,0.04-0.03,0.06c-0.04,0.08-0.06,0.16-0.08,0.25
	c-0.01,0.02-0.02,0.05-0.02,0.07c-0.02,0.11-0.04,0.22-0.04,0.34c0,0.12,0.01,0.23,0.04,0.34c0.01,0.04,0.02,0.07,0.03,0.1
	c0.02,0.07,0.04,0.15,0.08,0.21c0.02,0.04,0.04,0.08,0.06,0.11c0.03,0.06,0.07,0.12,0.11,0.18c0.03,0.04,0.06,0.07,0.09,0.11
	c0.03,0.03,0.05,0.06,0.08,0.09c-0.07,0.09-0.15,0.18-0.23,0.27C14.89,15.19,14.82,15.28,14.74,15.36z M3.86,14.49
	c-0.05,0.01-0.1,0.01-0.15,0.01c-0.45,0-0.82-0.37-0.82-0.82c0-0.23,0.1-0.46,0.28-0.61c0.11-0.09,0.23-0.16,0.37-0.19l0,0
	c0.51-0.11,0.99,0.29,0.99,0.8c0,0.24-0.11,0.47-0.3,0.63l0,0C4.12,14.41,3.99,14.47,3.86,14.49z M10.81,3.46L10.81,3.46
	c0.01,0.05,0.01,0.1,0.01,0.15c0,0.09-0.01,0.17-0.04,0.26l0,0C10.67,4.2,10.35,4.43,10,4.43S9.33,4.2,9.22,3.86l0,0
	C9.19,3.78,9.18,3.69,9.18,3.61c0-0.05,0.01-0.1,0.01-0.15l0,0C9.27,3.07,9.61,2.79,10,2.79S10.73,3.07,10.81,3.46z"/>
</svg>
