<?xml version="1.0" encoding="utf-8"?>
<!-- Generator: Adobe Illustrator 23.0.2, SVG Export Plug-In . SVG Version: 6.00 Build 0)  -->
<svg version="1.1" id="Layer_1" xmlns="http://www.w3.org/2000/svg" xmlns:xlink="http://www.w3.org/1999/xlink" x="0px" y="0px"
	 viewBox="0 0 20 20" style="enable-background:new 0 0 20 20;" xml:space="preserve">
<g>
	<path d="M17.04,4.47l-7.11,0l-7.15,0c-0.91,0-1.52,0.61-1.52,1.51c0,3.28,0,6.56,0,9.84c0,0.91,0.61,1.52,1.53,1.52h14.26
		c0.92,0,1.53-0.62,1.53-1.54V6.02C18.58,5.08,17.97,4.47,17.04,4.47z M1.92,5.9c0.01-0.43,0.33-0.75,0.76-0.76
		c0.38-0.01,0.76-0.01,1.14,0c0.45,0.01,0.76,0.34,0.77,0.8c0,0.36,0,0.72,0,1.08C4.58,7.47,4.26,7.79,3.8,7.8
		c-0.07,0-0.14,0-0.21,0c-0.06,0-0.11,0-0.17,0l-0.16,0l-0.19,0c-0.12,0-0.25,0-0.37,0C2.25,7.78,1.94,7.47,1.92,7.03
		C1.91,6.65,1.91,6.27,1.92,5.9z M1.92,10.34c0.01-0.43,0.32-0.74,0.76-0.76c0.39-0.01,0.78-0.01,1.16,0
		c0.44,0.02,0.74,0.33,0.75,0.79c0,0.35,0,0.7,0,1.05c0,0.49-0.32,0.81-0.81,0.81H3.09c-0.06,0-0.12,0-0.17,0c-0.07,0-0.14,0-0.21,0
		c-0.44-0.01-0.76-0.33-0.78-0.76C1.91,11.1,1.91,10.72,1.92,10.34z M4.59,15.89c-0.01,0.45-0.32,0.77-0.77,0.79
		c-0.13,0-0.26,0-0.39,0l-0.17,0v0l-0.17,0c-0.06,0-0.12,0-0.17,0c-0.07,0-0.14,0-0.21,0c-0.44-0.01-0.76-0.33-0.77-0.77
		c-0.01-0.37-0.01-0.75,0-1.12c0.01-0.45,0.32-0.76,0.77-0.77c0.38-0.01,0.76-0.01,1.14,0c0.45,0.01,0.76,0.33,0.76,0.79
		C4.59,15.17,4.59,15.53,4.59,15.89z M14.56,16.67H5.26V5.14h9.29V16.67z M15.25,5.92c0.01-0.47,0.32-0.78,0.79-0.79
		c0.36-0.01,0.72-0.01,1.08,0c0.48,0.01,0.78,0.32,0.79,0.81c0,0.12,0,0.24,0,0.36l0,0.16l0,0.18c0,0.12,0,0.25,0,0.38
		c-0.01,0.45-0.32,0.76-0.76,0.77c-0.18,0-0.36,0.01-0.54,0.01c-0.19,0-0.38,0-0.57-0.01c-0.46-0.01-0.77-0.32-0.78-0.78
		C15.24,6.65,15.24,6.29,15.25,5.92z M17.91,15.53c0,0.13,0,0.26,0,0.39c-0.01,0.44-0.33,0.75-0.76,0.76
		c-0.18,0-0.36,0.01-0.55,0.01c-0.2,0-0.41,0-0.61-0.01c-0.42-0.01-0.73-0.32-0.74-0.73c-0.01-0.4-0.01-0.8,0-1.2
		c0.01-0.41,0.32-0.71,0.72-0.72c0.41-0.01,0.82-0.01,1.2,0c0.42,0.02,0.73,0.34,0.74,0.78c0,0.13,0,0.26,0,0.38l0,0.17L17.91,15.53
		z M17.91,11.11c0,0.12,0,0.24,0,0.37c-0.01,0.44-0.33,0.75-0.75,0.76c-0.18,0-0.37,0.01-0.55,0.01c-0.2,0-0.4,0-0.61-0.01
		c-0.42-0.01-0.73-0.32-0.74-0.73c-0.01-0.38-0.01-0.79,0-1.2c0.01-0.4,0.31-0.71,0.7-0.72c0.42-0.02,0.84-0.02,1.24,0
		c0.42,0.02,0.71,0.33,0.72,0.77c0,0.13,0,0.27,0,0.4l0,0.18L17.91,11.11z"/>
	<path d="M7.13,10.9c0-0.7,0-1.4,0-2.1c0-0.57,0.4-0.82,0.91-0.57c1.42,0.71,2.83,1.42,4.25,2.12c0.24,0.12,0.4,0.28,0.4,0.55
		c0,0.28-0.16,0.43-0.4,0.55c-1.44,0.71-2.87,1.43-4.3,2.15c-0.44,0.22-0.86-0.04-0.86-0.53C7.13,12.35,7.13,11.63,7.13,10.9z"/>
</g>
</svg>
