<?xml version="1.0" encoding="utf-8"?>
<!-- Generator: Adobe Illustrator 23.0.2, SVG Export Plug-In . SVG Version: 6.00 Build 0)  -->
<svg version="1.1" id="Layer_1" xmlns="http://www.w3.org/2000/svg" xmlns:xlink="http://www.w3.org/1999/xlink" x="0px" y="0px"
	 viewBox="0 0 20 20" style="enable-background:new 0 0 20 20;" xml:space="preserve">
<path d="M16.83,1.25H3.18c-1.12,0-2.03,0.91-2.03,2.02v10.24c0,1.12,0.91,2.03,2.03,2.03h3.66v3.24c0,0.09,0.05,0.13,0.09,0.15
	c0.06,0.03,0.14,0.03,0.18-0.01l4.51-3.38h5.2c1.12,0,2.03-0.91,2.03-2.03V3.27C18.85,2.16,17.94,1.25,16.83,1.25z M17.64,13.51
	c0,0.45-0.37,0.82-0.82,0.82h-5.6l-3.18,2.38v-2.38H3.18c-0.45,0-0.82-0.37-0.82-0.82V3.27c0-0.45,0.37-0.82,0.82-0.82h13.65
	c0.45,0,0.82,0.37,0.82,0.82V13.51z"/>
<circle cx="5.2" cy="8.15" r="0.85"/>
<circle cx="10" cy="8.15" r="0.85"/>
<circle cx="14.8" cy="8.15" r="0.85"/>
</svg>
