<?xml version="1.0" encoding="utf-8"?>
<!-- Generator: Adobe Illustrator 23.0.2, SVG Export Plug-In . SVG Version: 6.00 Build 0)  -->
<svg version="1.1" id="Layer_1" xmlns="http://www.w3.org/2000/svg" xmlns:xlink="http://www.w3.org/1999/xlink" x="0px" y="0px"
	 viewBox="0 0 20 20" style="enable-background:new 0 0 20 20;" xml:space="preserve">
<g>
	<g>
		<path d="M19.68,4.73c-0.11-0.16-0.29-0.26-0.48-0.26L7.28,3.95C6.94,3.93,6.65,4.2,6.64,4.54C6.63,4.88,6.89,5.17,7.23,5.18
			l11.11,0.48l-2.18,6.97H6.43L4.68,2.91C4.64,2.7,4.49,2.53,4.3,2.45L1.42,1.32C1.1,1.2,0.74,1.35,0.62,1.67
			C0.5,1.98,0.65,2.34,0.97,2.47l2.56,1l1.79,9.73c0.05,0.29,0.61,0.57,0.61,0.57h0.29l-0.66,1.85c-0.06,0.15-0.03,0.33,0.06,0.46
			c0.09,0.13,0.25,0.21,0.41,0.21H6.5c0,0-0.47,0.74-0.47,1.21c0,1.02,0.83,1.85,1.85,1.85s1.85-0.83,1.85-1.85
			c0-0.47-0.18-0.91-0.47-1.21h4.03c-0.29,0.31-0.48,0.74-0.48,1.21c0,1.02,0.83,1.85,1.85,1.85c1.02,0,1.85-0.83,1.85-1.85
			c0-0.47-0.18-0.91-0.47-1.21h0.58c0.28-0.02,0.51-0.25,0.51-0.53c0-0.28-0.51-0.38-0.51-0.38H6.74l0.58-1.61h9.29
			c0,0,0.51-0.24,0.59-0.49l2.57-8.01C19.82,5.08,19.79,4.88,19.68,4.73z M7.87,18.33c-0.45,0-0.82-0.37-0.82-0.82
			c0-0.45,0.37-0.82,0.82-0.82s0.82,0.37,0.82,0.82C8.69,17.96,8.33,18.33,7.87,18.33z M14.65,18.33c-0.45,0-0.82-0.37-0.82-0.82
			c0-0.45,0.37-0.82,0.82-0.82s0.82,0.37,0.82,0.82C15.48,17.96,15.11,18.33,14.65,18.33z"/>
	</g>
</g>
</svg>
