<?xml version="1.0" encoding="utf-8"?>
<!-- Generator: Adobe Illustrator 23.0.2, SVG Export Plug-In . SVG Version: 6.00 Build 0)  -->
<svg version="1.1" id="Layer_1" xmlns="http://www.w3.org/2000/svg" xmlns:xlink="http://www.w3.org/1999/xlink" x="0px" y="0px"
	 viewBox="0 0 20 20" style="enable-background:new 0 0 20 20;" xml:space="preserve">
<g>
	<g>
		<path d="M16.16,4.33c-1.45-1.42-3.88-1.55-5.43-0.28c-0.35,0.29-0.65,0.62-0.92,1.01c-0.03-0.05-0.06-0.09-0.1-0.14
			C9.66,4.85,9.61,4.78,9.55,4.71C8.56,3.52,7.28,3.02,5.76,3.23C4.45,3.41,3.45,4.07,2.8,5.17C1.78,6.91,1.74,8.73,2.69,10.6
			c0.47,0.93,1.18,1.71,1.8,2.36c1.35,1.39,2.99,2.73,5.02,4.1c0.11,0.08,0.2,0.11,0.3,0.11c0.09,0,0.18-0.04,0.3-0.12
			c1.23-0.82,2.39-1.7,3.43-2.61c1.2-1.04,2.09-1.97,2.8-2.92c1.07-1.44,1.46-3,1.15-4.64C17.31,5.88,16.85,5.02,16.16,4.33z
			 M15.75,11.21c-0.66,0.87-1.46,1.71-2.52,2.64c-1.02,0.9-2.12,1.74-3.37,2.59c-0.05,0.03-0.05,0.03-0.08,0.01
			c-2.02-1.39-3.56-2.66-4.85-4c-0.78-0.82-1.3-1.51-1.68-2.23C2.88,9.51,2.71,8.75,2.7,7.83C2.72,6.86,3.02,5.95,3.59,5.2
			C4.62,3.83,6.31,3.62,7.44,4c0.67,0.22,1.22,0.64,1.69,1.27c0.13,0.18,0.24,0.37,0.33,0.51c0.06,0.1,0.16,0.24,0.36,0.24
			c0,0,0,0,0.01,0c0.2,0,0.29-0.14,0.35-0.24c0.38-0.7,0.86-1.21,1.48-1.55c1.31-0.73,3.08-0.45,4.13,0.66
			c0.59,0.62,0.95,1.37,1.09,2.29C17.08,8.62,16.72,9.94,15.75,11.21z"/>
		<path d="M9.81,17.3c-0.11,0-0.23-0.04-0.37-0.14c-2.04-1.38-3.69-2.73-5.04-4.12c-0.63-0.66-1.35-1.45-1.83-2.39
			C1.61,8.75,1.65,6.88,2.69,5.11c0.67-1.14,1.7-1.81,3.05-2c1.57-0.21,2.88,0.3,3.9,1.52C9.7,4.7,9.75,4.77,9.81,4.84l0,0.01
			c0.25-0.33,0.52-0.63,0.84-0.89c1.59-1.31,4.1-1.18,5.6,0.29l0,0c0.72,0.7,1.18,1.59,1.37,2.62c0.32,1.68-0.08,3.28-1.17,4.74
			c-0.72,0.96-1.61,1.9-2.82,2.94c-1.06,0.91-2.22,1.79-3.45,2.62C10.04,17.26,9.93,17.3,9.81,17.3z M6.42,3.31
			C6.21,3.31,6,3.33,5.78,3.36C4.5,3.53,3.54,4.17,2.91,5.24c-1,1.7-1.04,3.48-0.11,5.31c0.46,0.91,1.16,1.69,1.78,2.33
			c1.34,1.38,2.97,2.72,5,4.09c0.19,0.13,0.27,0.13,0.46,0c1.22-0.82,2.38-1.69,3.42-2.6c1.19-1.03,2.08-1.95,2.78-2.9
			c1.05-1.41,1.43-2.94,1.13-4.55c-0.19-0.99-0.62-1.82-1.3-2.49l0,0c-1.41-1.38-3.76-1.5-5.26-0.27c-0.34,0.28-0.63,0.6-0.89,0.98
			l-0.1,0.15L9.61,5C9.56,4.92,9.51,4.85,9.45,4.79C8.63,3.81,7.62,3.31,6.42,3.31z M9.81,16.59c-0.03,0-0.06-0.01-0.1-0.04
			c-2.03-1.39-3.58-2.67-4.87-4.02c-0.79-0.83-1.32-1.52-1.7-2.26c-0.38-0.72-0.56-1.5-0.56-2.45c0.01-1,0.33-1.94,0.91-2.71
			c1.06-1.41,2.82-1.63,3.99-1.24C8.17,4.11,8.74,4.54,9.23,5.2c0.14,0.18,0.25,0.38,0.33,0.53C9.64,5.85,9.71,5.9,9.81,5.9
			c0.11,0,0.18-0.05,0.25-0.17c0.39-0.72,0.89-1.24,1.52-1.6c1.35-0.76,3.19-0.47,4.28,0.68c0.61,0.64,0.97,1.41,1.12,2.36
			c0.23,1.47-0.14,2.82-1.13,4.12l0,0c-0.67,0.88-1.47,1.72-2.54,2.66c-1.03,0.9-2.13,1.75-3.38,2.6
			C9.89,16.57,9.86,16.59,9.81,16.59z M6.38,3.96c-0.93,0-1.97,0.37-2.69,1.31C3.14,6,2.84,6.89,2.83,7.83
			c0,0.9,0.17,1.64,0.53,2.33c0.37,0.71,0.88,1.39,1.66,2.2c1.27,1.33,2.8,2.59,4.79,3.96c1.24-0.85,2.33-1.69,3.34-2.57
			c1.05-0.92,1.85-1.75,2.5-2.62l0,0c0.95-1.25,1.3-2.53,1.08-3.93c-0.14-0.89-0.48-1.62-1.05-2.22c-1.01-1.07-2.72-1.34-3.98-0.63
			c-0.59,0.33-1.06,0.82-1.43,1.5c-0.11,0.2-0.26,0.3-0.46,0.3c-0.3,0-0.43-0.23-0.47-0.3C9.27,5.7,9.16,5.52,9.03,5.35
			C8.58,4.73,8.04,4.33,7.4,4.11C7.09,4.01,6.74,3.96,6.38,3.96z"/>
	</g>
</g>
</svg>
