<?xml version="1.0" encoding="utf-8"?>
<!-- Generator: Adobe Illustrator 23.0.2, SVG Export Plug-In . SVG Version: 6.00 Build 0)  -->
<svg version="1.1" id="Layer_1" xmlns="http://www.w3.org/2000/svg" xmlns:xlink="http://www.w3.org/1999/xlink" x="0px" y="0px"
	 viewBox="0 0 20 20" style="enable-background:new 0 0 20 20;" xml:space="preserve">
<path d="M10,1.25c-3.28,0-5.95,2.67-5.95,5.95c0,1.44,0.52,2.83,1.47,3.91c0.51,0.58,1.44,1.93,1.84,3.16H8.6
	c-0.01-0.06-0.02-0.12-0.04-0.17c-0.2-0.62-0.79-2.24-2.14-3.77C5.67,9.46,5.25,8.35,5.25,7.2c0-1.27,0.48-2.46,1.37-3.35
	C7.5,2.95,8.74,2.44,10,2.44c2.62,0,4.76,2.13,4.76,4.76c0,1.15-0.42,2.26-1.18,3.13c-1.33,1.52-1.94,3.14-2.13,3.76
	c-0.02,0.06-0.03,0.12-0.04,0.18h1.23c0.41-1.23,1.33-2.58,1.84-3.16c0.95-1.08,1.47-2.47,1.47-3.91C15.95,3.92,13.28,1.25,10,1.25z
	"/>
<path d="M7.49,17.34l0.86,1.3c0.06,0.09,0.16,0.14,0.26,0.14h2.78c0.11,0,0.2-0.05,0.26-0.14l0.86-1.3
	c0.03-0.05,0.05-0.11,0.05-0.17l0-1.27H7.43l0,1.27C7.44,17.23,7.45,17.29,7.49,17.34z"/>
<path d="M10,3.82c-1.86,0-3.38,1.52-3.38,3.38c0,0.31,0.25,0.56,0.56,0.56c0.31,0,0.56-0.25,0.56-0.56c0-1.24,1.01-2.25,2.25-2.25
	c0.31,0,0.56-0.25,0.56-0.56C10.56,4.07,10.31,3.82,10,3.82z"/>
</svg>
